<?xml version="1.0" encoding="UTF-8"?>
<svg xmlns="http://www.w3.org/2000/svg" xmlns:xlink="http://www.w3.org/1999/xlink" width="595px" height="628px" viewBox="0 0 595 627" version="1.1">
<g id="surface1">
<path style=" stroke:none;fill-rule:nonzero;fill:rgb(70.196078%,70.196078%,70.196078%);fill-opacity:1;" d="M 296.585938 0.792969 L 1.972656 104.367188 L 48.53125 489.964844 L 296.894531 626.332031 L 546.542969 488.113281 L 593.082031 102.535156 Z M 296.585938 0.792969 "/>
<path style=" stroke:none;fill-rule:nonzero;fill:rgb(65.098039%,7.058824%,5.098039%);fill-opacity:1;" d="M 563.699219 124.820312 L 295.894531 33.589844 L 295.894531 593.75 L 520.324219 469.667969 L 563.695312 124.820312 Z M 563.699219 124.820312 "/>
<path style=" stroke:none;fill-rule:nonzero;fill:rgb(86.666667%,10.588235%,8.627451%);fill-opacity:1;" d="M 35.03125 126.460938 L 74.929688 471.316406 L 295.890625 593.75 L 295.890625 33.578125 L 35.035156 126.460938 Z M 35.03125 126.460938 "/>
<path style=" stroke:none;fill-rule:nonzero;fill:rgb(94.901961%,94.901961%,94.901961%);fill-opacity:1;" d="M 369.613281 331.789062 L 295.894531 366.226562 L 218.199219 366.226562 L 181.675781 457.488281 L 113.746094 458.742188 L 295.894531 53.929688 L 369.613281 331.792969 Z M 362.488281 314.453125 L 296.386719 183.722656 L 242.164062 312.203125 L 295.894531 312.203125 Z M 362.488281 314.453125 "/>
<path style=" stroke:none;fill-rule:nonzero;fill:rgb(70.196078%,70.196078%,70.196078%);fill-opacity:1;" d="M 295.894531 53.925781 L 296.382812 183.722656 L 357.902344 312.300781 L 296.035156 312.300781 L 295.894531 366.144531 L 381.449219 366.222656 L 421.433594 458.753906 L 486.4375 459.957031 Z M 295.894531 53.925781 "/>
</g>
</svg>
